<?xml version="1.0" encoding="utf-8"?><svg width="308" height="308" viewBox="0 0 308 308" xmlns="http://www.w3.org/2000/svg" xmlns:xlink="http://www.w3.org/1999/xlink"><svg fill="none" height="308" width="308" viewBox="-50 -50 308 308" id="icons__icon" xmlns="http://www.w3.org/2000/svg"><path d="M208 104c0 57.438-46.562 104-104 104S0 161.438 0 104 46.562 0 104 0s104 46.562 104 104z" fill="#994878" fill-opacity=".7"/><path clip-rule="evenodd" d="M137.574 76.689a2.394 2.394 0 0 0-3.36 0l-35.412 34.639a2.387 2.387 0 0 1-3.363 0L79.923 95.799a2.355 2.355 0 0 0-1.666-.69 2.375 2.375 0 0 0-1.697.69l-6.857 6.057c-.456.461-.703 1.037-.703 1.637 0 .604.247 1.236.706 1.694l15.646 16.135c.924.921 2.441 2.415 3.363 3.33l6.727 6.664a2.41 2.41 0 0 0 3.364 0l45.498-44.633a2.344 2.344 0 0 0 0-3.334z" fill="#fff" fill-rule="evenodd"/></svg></svg>