<?xml version="1.0" ?><svg height="64" preserveAspectRatio="xMidYMid" viewBox="0 0 49 64" width="49" xmlns="http://www.w3.org/2000/svg" xmlns:xlink="http://www.w3.org/1999/xlink"><defs><style>
      .cls-1 {
        fill: #067fcb;
      }

      .cls-1, .cls-2, .cls-3 {
        fill-rule: evenodd;
      }

      .cls-2 {
        fill: #fff;
      }

      .cls-3 {
        fill: #7cc9f9;
      }
    </style></defs><g><path class="cls-1" d="M49.000,16.842 L49.000,58.947 C49.000,61.738 46.730,64.000 43.931,64.000 L5.069,64.000 C2.269,64.000 -0.000,61.738 -0.000,58.947 L-0.000,5.053 C-0.000,2.262 2.269,-0.000 5.069,-0.000 L32.103,-0.000 L49.000,16.842 Z"/><path class="cls-2" d="M36.895,38.014 C36.611,37.878 36.245,37.811 35.797,37.811 C34.999,37.811 34.430,38.055 34.091,38.543 C33.752,39.032 33.583,39.789 33.583,40.814 C33.583,41.839 33.757,42.588 34.105,43.062 C34.453,43.535 35.047,43.772 35.888,43.772 C36.251,43.772 36.584,43.721 36.886,43.618 C37.189,43.516 37.476,43.289 37.748,42.940 L39.518,44.179 C39.155,44.716 38.677,45.123 38.084,45.400 C37.491,45.677 36.741,45.816 35.834,45.816 C34.297,45.816 33.135,45.399 32.349,44.563 C31.562,43.728 31.169,42.490 31.169,40.850 C31.169,39.252 31.550,38.007 32.312,37.114 C33.075,36.222 34.218,35.775 35.743,35.775 C36.560,35.775 37.287,35.908 37.925,36.173 C38.564,36.439 39.049,36.849 39.382,37.403 L37.640,38.643 C37.428,38.359 37.180,38.150 36.895,38.014 ZM24.943,45.816 C21.894,45.816 20.369,44.149 20.369,40.814 C20.369,39.210 20.735,37.969 21.467,37.091 C22.199,36.214 23.358,35.775 24.943,35.775 C26.516,35.775 27.669,36.214 28.401,37.091 C29.133,37.969 29.499,39.210 29.499,40.814 C29.499,42.394 29.133,43.623 28.401,44.500 C27.669,45.378 26.516,45.816 24.943,45.816 ZM26.586,38.530 C26.259,38.050 25.712,37.811 24.943,37.811 C24.181,37.811 23.630,38.056 23.292,38.548 C22.953,39.039 22.783,39.795 22.783,40.814 C22.783,41.827 22.951,42.573 23.287,43.053 C23.623,43.532 24.175,43.772 24.943,43.772 C25.699,43.772 26.244,43.535 26.577,43.062 C26.909,42.588 27.076,41.839 27.076,40.814 C27.076,39.771 26.913,39.009 26.586,38.530 ZM16.059,44.613 C15.623,44.981 15.163,45.274 14.679,45.491 C14.195,45.708 13.644,45.816 13.027,45.816 C11.829,45.816 10.913,45.385 10.278,44.523 C9.642,43.660 9.325,42.442 9.325,40.868 C9.325,39.258 9.674,38.007 10.373,37.114 C11.072,36.222 12.053,35.775 13.318,35.775 C13.765,35.775 14.225,35.867 14.697,36.051 C15.169,36.235 15.559,36.469 15.868,36.752 L15.868,32.066 L18.209,32.066 L18.209,45.536 L16.059,45.536 L16.059,44.613 ZM15.868,38.679 C15.620,38.456 15.313,38.258 14.947,38.086 C14.581,37.915 14.207,37.829 13.826,37.829 C13.197,37.829 12.692,38.099 12.310,38.638 C11.929,39.178 11.739,39.909 11.739,40.832 C11.739,41.743 11.894,42.457 12.206,42.976 C12.518,43.495 13.000,43.754 13.654,43.754 C14.041,43.754 14.435,43.665 14.838,43.487 C15.240,43.309 15.583,43.090 15.868,42.831 L15.868,38.679 Z"/><path class="cls-3" d="M49.000,15.899 L49.000,17.995 L35.187,17.995 C32.327,17.995 31.008,15.675 31.008,12.814 L31.008,-0.000 L33.100,-0.000 L49.000,15.899 Z"/></g></svg>